<svg width="595" height="842" viewBox="0 0 595 842" fill="none" xmlns="http://www.w3.org/2000/svg">
<mask id="mask0_11039_2993" style="mask-type:alpha" maskUnits="userSpaceOnUse" x="0" y="0" width="595" height="842">
<rect width="595" height="842" fill="#D9D9D9"/>
</mask>
<g mask="url(#mask0_11039_2993)">
<path fill-rule="evenodd" clip-rule="evenodd" d="M-74.226 412.143L-69.8037 409.932L-67.5926 407.345L-68.3221 402.558L-63.8998 401.452L-58.7481 394.454L-55.0553 391.502L-52.4795 391.867L-48.7981 395.924L-41.0592 400.711L-38.4719 400.346L-35.8961 402.193L-34.7905 401.087L-31.8385 401.452L-30.733 399.241L-28.5219 398.5L-23.3702 388.926L-18.2071 388.55L-15.996 390.396L-10.4682 389.656L-8.99789 386.715L-6.04592 386.339L0.222725 390.396L7.58553 388.926L12.3839 393.713L17.5356 395.924L21.9578 401.452L23.8042 401.087L25.2745 405.133H30.4376L34.8598 401.452L36.3301 402.558L34.8598 413.248L36.3301 420.987L43.7043 425.774L45.9154 437.571L53.2896 441.993L61.7694 444.934L70.9786 442.722L83.5045 444.934L89.7732 439.406L113.731 455.624L118.153 464.845L117.777 469.632L112.625 476.265L116.307 479.582L112.249 492.108L112.99 498.741L109.309 509.432L95.6657 521.958L93.4546 525.275L97.5121 530.073L96.0418 535.966L93.0898 540.388L84.6101 543.705L83.8806 549.973L72.0842 551.079L66.9211 561.394L65.4508 560.288L52.5488 565.451L47.021 577.236L45.1746 576.131L40.3876 578.342L39.2821 577.977L37.8118 573.555L35.2246 571.344L35.9654 569.133L32.284 564.71L33.0134 562.499L31.5432 559.182V555.125L26.7562 550.338H23.0634L18.6411 554.019L16.0653 554.396L11.2783 546.657L7.22081 544.81L6.47997 540.023L0.952164 542.964L-6.78676 541.129L-7.5162 538.542L-11.209 534.119H-13.044L-20.7829 526.38L-24.4757 527.121L-29.6274 524.545L-32.2147 525.651L-30.733 523.44L-28.1571 522.699L-27.4163 520.853L-32.5794 517.171V515.701L-29.6274 512.384L-34.4258 507.962L-35.5313 507.221L-39.5775 509.068L-42.1647 508.327L-47.6925 509.068L-48.422 504.269L-53.2203 502.434L-52.4795 501.693L-54.3259 496.166L-55.4314 488.791L-50.2684 484.004L-50.6331 481.428L-47.6925 479.217L-51.7386 471.102L-53.2203 464.104L-58.372 461.152L-59.4776 455.624L-66.1109 448.991L-68.6982 444.569L-69.4276 444.934L-72.0149 443.828L-71.6387 442.722L-74.226 437.195L-73.4851 434.984L-75.3315 432.408L-74.5907 430.937L-75.3315 427.621L-73.1204 424.669L-74.5907 422.458L-73.1204 419.882L-74.226 412.143Z" fill="white" stroke="black" stroke-opacity="0.2"/>
<path fill-rule="evenodd" clip-rule="evenodd" d="M-251.48 458.94L-248.904 463.738L-244.481 464.844L-241.906 462.997L-242.27 466.314L-240.8 464.103H-237.483V461.151L-235.637 462.633L-235.272 459.681L-231.215 458.21L-232.685 457.105H-230.85L-227.898 450.836L-223.476 455.258L-223.111 452.307L-221.265 453.412L-217.207 447.884L-211.679 446.414L-208.739 453.047L-202.47 451.942L-201.365 453.412V451.201L-199.153 453.047L-197.307 449.731L-195.096 450.472L-192.885 444.932L-192.52 446.049L-191.415 444.568L-189.203 445.308L-188.839 444.203L-186.628 443.097L-186.992 441.616L-183.311 437.934L-181.465 439.04V438.299H-180.359L-169.303 443.827L-163.776 440.51L-157.883 441.616L-142.77 429.09L-139.088 422.821L-136.501 422.456L-133.561 423.562L-144.981 440.145L-143.511 443.097V447.52L-140.559 449.731L-134.29 448.26L-128.033 442.356L-125.822 441.992L-121.023 439.04L-116.601 437.934L-114.025 434.618L-112.92 429.454L-111.449 429.09V430.195L-109.238 430.56L-106.651 429.454V427.243L-104.44 425.408L-101.864 425.032L-102.229 424.303L-99.653 422.092H-96.3363L-95.2308 419.504L-87.4918 417.669L-84.1752 414.353L-74.2251 412.142L-73.1196 419.881L-74.5898 422.456L-73.1196 424.667L-75.3307 427.619L-74.5898 430.936L-75.3307 432.406L-73.4843 434.982L-74.2251 437.193L-71.6379 442.721L-72.014 443.827L-69.4267 444.932L-68.6973 444.568L-66.1101 448.99L-59.4767 455.623L-58.3711 461.151L-53.2195 464.103L-51.7378 471.101L-47.6917 479.216L-50.6322 481.427L-50.2675 484.003L-55.4306 488.79L-54.325 496.164L-52.4786 501.692L-53.2195 502.433L-48.4211 504.268L-47.6917 509.066L-42.1638 508.325L-39.5766 509.066L-35.5305 507.22L-34.4249 507.961L-29.6266 512.383L-32.5785 515.7V517.17L-27.4154 520.851L-28.1563 522.698L-30.7321 523.439L-32.2138 525.65L-29.6266 524.544L-24.4749 527.12L-20.7821 526.379L-13.0431 534.118H-11.2081L-7.51534 538.54L-6.78589 541.128L0.953033 542.963L6.48083 540.022L7.22168 544.809L11.2792 546.655L16.0662 554.394L18.642 554.018L23.0643 550.337H26.757L31.544 555.124V559.181L33.0143 562.498L32.2849 564.709L35.9663 569.131L35.2254 571.342L37.8127 573.553L39.283 577.976L40.3885 578.34L45.1755 576.129L47.0219 577.235L45.1755 583.139L40.3885 588.302L37.0718 593.83L27.4865 594.935L23.0643 600.087L24.5459 604.509L21.9587 607.096L11.2792 609.672L4.64584 607.461L0.588318 612.624L-4.19865 614.095L-6.04504 618.517L-25.5804 624.785L-28.8971 621.833L-28.1563 618.152L-30.7321 614.459L-34.7896 615.565L-38.1063 619.258L-39.2119 615.941L-44.7397 612.248L-49.1619 612.989L-49.5266 610.778L-55.4306 610.037L-66.1101 611.883L-80.1176 601.933L-100.382 599.358L-114.025 592.348H-117.707L-119.918 595.665L-126.551 596.041L-127.292 593.83L-128.398 589.407H-133.925L-142.405 582.398L-147.933 580.928L-153.461 568.39L-158.989 562.863L-169.303 555.865L-170.409 552.548L-178.889 557.711L-186.992 556.229L-195.472 561.028L-195.837 563.968L-198.413 564.344V561.392L-205.046 565.45L-205.787 555.5L-209.104 556.605L-208.739 551.442L-206.152 549.231L-199.518 555.865L-198.048 555.5L-194.367 546.279L-201 548.866L-207.257 541.857L-209.844 542.963L-214.996 551.442L-222.006 551.078L-217.948 542.598L-219.054 534.859L-216.842 531.177H-210.574L-213.526 537.435L-211.315 540.387L-205.787 527.12L-212.785 522.333L-213.891 516.064L-220.524 510.537L-214.267 504.268L-210.209 507.22L-209.844 502.798L-216.842 500.222L-217.207 492.107L-223.476 495.423L-229.744 493.953L-230.109 481.792L-233.061 475.899L-237.107 472.947L-238.589 475.899L-242.27 472.583L-251.856 472.947L-253.691 471.101L-252.961 462.633L-255.537 459.316L-251.48 458.94Z" fill="white" stroke="black" stroke-opacity="0.2"/>
<path fill-rule="evenodd" clip-rule="evenodd" d="M-257.007 715.807L-255.537 712.855L-253.326 712.49L-251.115 705.116L-248.163 706.221L-242.27 701.434L-236.378 687.062L-227.533 681.899H-225.322L-222.37 674.536L-218.313 673.795L-214.996 668.268L-205.787 673.795L-201 672.325L-198.412 670.479L-195.096 671.949L-190.673 668.268L-185.522 670.843L-184.416 659.788L-182.935 656.847L-184.781 639.158L-184.04 625.892L-185.887 624.045L-179.994 608.203L-177.042 603.404L-170.409 603.78L-151.614 597.147L-136.877 596.041L-135.395 597.876L-129.868 593.454L-127.292 593.83L-126.551 596.041L-119.918 595.665L-117.706 592.349H-114.025L-100.382 599.358L-80.1174 601.934L-66.1098 611.884L-55.4303 610.038L-49.5264 610.778L-49.1617 612.99L-44.7394 612.249L-39.2116 615.942L-38.1061 619.258L-34.7894 615.565L-30.7319 614.46L-28.156 618.153L-28.8969 621.834L-25.5802 624.786L-6.0448 618.517L-4.19839 614.095L0.588562 612.625L4.64609 607.462L11.2794 609.673L21.959 607.097L24.5462 604.51L23.0645 600.088L27.4868 594.936L37.0721 593.83L36.7074 598.617L34.1201 601.934L31.5443 613.73L32.6498 615.201V617.412L30.074 627.362L31.1796 631.419L32.6498 632.525L31.1796 635.466L27.4868 643.204L24.5462 643.581H21.2295L17.9128 645.792L15.3256 646.156L13.4906 649.838L10.5386 650.579L9.79779 653.895L11.2794 656.471L7.96277 660.893L5.75165 666.057L7.58667 670.843L5.0108 671.949L3.1644 674.901V677.477L-1.62256 680.794L1.32941 685.592L-0.516998 688.532L0.223846 690.744L-1.98727 693.331H-5.68007L-10.467 697.012L-12.6782 694.436L-14.1484 696.647L-13.419 698.118H-15.254L-15.6301 701.799L-18.9468 702.175L-18.5707 705.857L-19.3115 706.598H-16.3596L-17.1004 709.173L-16.3596 712.855L-10.8318 714.336L-14.1484 718.018L-13.419 720.97L-20.7818 722.805L-24.0985 722.075L-27.4152 724.287L-28.156 723.546L-31.4727 725.016L-32.943 722.805H-34.4247L-39.2116 730.544L-38.4708 733.496L-44.7394 735.707L-45.4803 737.553L-48.0561 737.177L-49.5264 737.918L-49.1617 735.707L-56.1598 734.601L-57.6414 733.496L-54.6895 730.544L-56.1598 729.438L-59.1117 725.392L-67.5915 726.862L-67.2154 729.073L-69.8026 728.709L-74.9543 730.544L-79.7527 728.333L-91.5377 729.438L-95.5952 727.603L-97.8064 724.651L-104.075 723.181L-105.181 729.814L-111.449 733.496L-109.238 735.342L-111.449 743.446H-115.871L-121.764 750.079L-126.186 749.714L-128.762 752.29L-131.714 749.338L-140.923 750.444L-147.192 753.031V756.348L-154.19 761.511L-155.296 765.557L-160.459 765.192L-158.988 783.246L-161.929 792.831L-167.833 786.198L-168.938 782.14L-175.572 781.035L-178.148 774.778L-185.887 769.25L-188.462 764.087L-191.779 765.557L-192.885 763.346H-195.837L-199.894 760.029L-202.105 754.137L-205.046 753.031L-209.468 746.022L-218.313 741.235L-222.735 730.92L-225.322 732.39L-227.533 730.179L-226.792 720.594H-231.215L-232.32 725.392L-241.529 723.546L-245.587 725.757L-244.481 720.229H-259.218L-257.007 715.807Z" fill="white" stroke="black" stroke-opacity="0.2"/>
<path fill-rule="evenodd" clip-rule="evenodd" d="M-51.739 321.109V315.958L-47.6928 308.583L-53.5854 304.891L-50.2687 294.941L-53.9501 291.259L-51.739 290.154L-52.1151 283.155L-54.6909 282.05L-52.1151 276.887L-53.5854 269.889L-48.0576 265.09L-43.2706 261.409L-37.0019 259.563L-21.8888 262.15L-21.5241 258.833L-16.361 255.881L-16.7371 249.248L-12.3149 246.296L-0.88316 245.931L11.6427 238.557L22.3336 239.662L25.2742 244.085L27.8614 237.827L29.6964 239.298L26.7559 235.24L29.3317 229.712L30.4373 229.348L31.1781 224.185L28.2261 221.609L31.9075 219.762V213.87H35.2242L34.8595 211.294H37.4353L34.8595 205.025L36.3298 203.92L44.8096 206.872L48.491 201.344H50.7021L49.9726 197.651L53.654 197.286L54.0188 199.862L60.2874 198.757L62.8746 196.546L62.4985 192.864L72.0839 190.653V188.807L78.7172 189.183L79.0819 192.499L71.7191 202.449V209.812L62.8746 221.244L58.4524 223.82L59.1818 226.772H56.606L64.7096 234.875L76.8708 237.827V242.979L72.8247 247.037H69.508L65.4505 245.566L56.9707 249.612L54.0188 248.883L48.1262 252.929L48.491 257.728L40.3873 264.361L38.917 266.937L40.752 274.676L37.8115 278.733L34.8595 280.203L31.9075 286.837L31.5428 290.518L33.0131 301.209L35.6003 302.315L35.9651 304.161L38.917 305.996L39.6465 308.948L40.3873 314.476L37.4353 321.485L39.2818 328.848L38.917 331.435L40.752 334.011L37.4353 339.174L35.2242 347.278L31.9075 354.276L23.4392 366.073V371.6L25.2742 373.447L25.6503 378.975L27.4853 379.704L22.6983 386.337L27.1206 392.241V395.182H23.4392L18.2761 386.337L10.9019 386.713L4.26852 382.656L3.53909 377.869L5.75021 373.071L3.9038 362.015L5.00937 358.698L9.06689 356.863V352.441L5.75021 351.7L7.22049 345.808L12.0075 343.22L13.8539 339.174V336.222L10.9019 339.174L12.0075 335.117L8.69077 335.858L9.79633 333.647L5.75021 336.587L7.58521 331.8L6.47965 327.743L10.9019 318.533L10.1724 317.063L5.75021 320.38L4.26852 312.641L3.16296 320.745L0.587124 324.061L2.0574 328.848L-0.153717 330.695L-1.624 325.167L-1.98872 328.483L-8.25736 335.117L-7.1518 330.33H-8.62209L-6.41096 327.378L-7.89264 325.167L-7.1518 321.109L-14.526 326.272L-19.313 320.38L-27.7927 326.637L-30.0039 334.376L-32.5797 322.215L-38.4722 318.169L-44.3761 317.063L-51.739 321.109Z" fill="white" stroke="black" stroke-opacity="0.2"/>
<path fill-rule="evenodd" clip-rule="evenodd" d="M-38.4711 733.497L-39.2119 730.545L-34.4249 722.806H-32.9433L-31.473 725.017L-28.1563 723.547L-27.4155 724.288L-24.0988 722.077L-20.7821 722.806L-13.4193 720.971L-14.1487 718.019L-10.8321 714.338L-16.3599 712.856L-17.1007 709.175L-16.3599 706.599H-19.3118L-18.571 705.858L-18.9471 702.177L-15.6304 701.801L-15.2543 698.119H-13.4193L-14.1487 696.649L-12.6785 694.438L-10.4673 697.014L-5.68037 693.332H-1.98756L0.223557 690.745L-0.517284 688.534L1.32912 685.593L-1.62284 680.795L3.16412 677.478V674.902L5.01052 671.95L7.58636 670.845L5.75136 666.058L7.96248 660.895L11.2792 656.473L9.79749 653.897L10.5383 650.58L13.4903 649.839L15.3253 646.158L17.9125 645.793L21.2292 643.582H24.5459L20.8531 650.215L22.6995 653.156L18.2773 650.215L14.9606 658.319L15.3253 669.375L20.1237 674.162L22.6995 681.171L32.6495 687.428L38.5421 716.173L41.8587 719.866L53.6552 720.971L62.135 732.392L64.7108 739.025L63.2405 743.447L67.298 748.975L71.7203 747.869L77.2481 750.445L82.7759 753.033L85.7165 764.088L84.6109 768.875L85.3517 772.933L87.9276 774.779L90.5148 772.933L93.4554 777.355L90.8795 790.257L104.146 807.57V811.992L100.465 813.474L99.3593 805.359L93.8315 807.205L85.7165 799.101L79.4592 798.361L77.9775 796.514L62.4997 800.572L59.9238 798.725L57.7127 802.042L54.396 800.572L49.9738 803.524L48.4921 802.042L40.0238 806.464L33.7551 804.629L33.3904 802.418L28.2273 799.466L10.903 798.361L7.58636 790.986L1.32912 789.881L-12.3137 771.462H-14.1487L-15.2543 767.77V762.242L-13.0432 759.301L-15.6304 749.34L-19.3118 746.023L-25.5805 743.083L-32.5785 744.553L-34.4249 740.871V735.708L-38.4711 733.497Z" fill="white" stroke="black" stroke-opacity="0.2"/>
<path fill-rule="evenodd" clip-rule="evenodd" d="M24.545 643.58L27.4856 643.204L31.1784 635.465L35.9654 644.685L40.7523 647.626L42.5987 651.319L41.4932 656.471L46.6563 666.056L52.9135 671.219L56.2302 671.584L62.875 666.056L66.5564 666.421L70.2378 664.209L72.825 667.902L78.3528 667.161L80.1878 670.113L79.0822 674.536L82.775 675.641L82.0342 678.217L86.0917 681.534L87.562 681.169L94.5601 690.378L98.9823 692.954L96.4065 694.06L95.6657 697.752L98.2529 695.906L114.836 707.702L153.155 681.898L159.788 685.215L163.846 690.013L162.375 694.436L164.21 717.276L162.375 720.228L169.374 739.764L175.642 744.551L178.218 743.08L181.17 744.915L176.372 750.443L171.585 749.338L164.951 754.136L154.637 767.403L154.26 758.558L146.898 760.029L144.31 756.347L134.736 757.453L128.103 751.56L124.786 753.771L121.834 752.29L119.623 756.712L117.777 757.088L116.307 750.078L114.836 748.608L110.414 749.338L109.673 744.915L106.357 744.551L103.781 739.023L77.2472 750.443L71.7194 747.867L67.2972 748.973L63.2397 743.445L64.71 739.023L62.1341 732.389L53.6543 720.969L41.8579 719.864L38.5412 716.171L32.6487 687.426L22.6986 681.169L20.1228 674.159L15.3244 669.373L14.9597 658.317L18.2764 650.213L22.6986 653.154L20.8522 650.213L24.545 643.58Z" fill="white" stroke="black" stroke-opacity="0.2"/>
<path fill-rule="evenodd" clip-rule="evenodd" d="M354.379 703.645L355.849 700.328L354.002 696.27L353.638 691.848L351.791 690.013H346.263L344.793 688.532L345.534 687.061L348.11 685.956L347.745 681.533L353.638 673.43L354.743 669.372L359.166 666.42L358.801 663.845L359.906 660.893L360.636 664.209L364.329 664.95L365.434 664.585V660.893L368.01 657.576H372.797L374.279 653.894L376.854 652.789L378.701 649.107L381.277 646.896L379.43 643.204L384.97 633.63L386.805 632.889L388.651 634.735L391.968 629.937L392.332 626.255L401.553 619.622L399.342 624.044L398.601 628.831L401.553 631.042L398.601 636.57L395.284 650.213L395.649 660.163L402.659 667.526L406.705 663.48L412.609 671.948L411.868 674.535L409.292 674.159L406.34 678.217L407.81 685.215L406.705 691.119L402.282 693.695L400.071 699.222H397.495L396.755 703.645L394.92 704.009L395.284 708.067L391.968 716.547L392.332 718.382L395.649 718.758L393.438 721.698L392.708 720.228L390.862 722.439L375.749 724.286L369.856 716.911L356.954 714.7L357.695 711.019L354.743 708.808L357.319 706.961L354.379 705.856V703.645Z" fill="white" stroke="black" stroke-opacity="0.2"/>
<path fill-rule="evenodd" clip-rule="evenodd" d="M32.6485 617.412V615.201L31.543 613.731L34.1188 601.934L36.7061 598.618L37.0708 593.831L40.3875 588.303L45.1744 583.14L47.0208 577.236L52.5486 565.451L65.4506 560.288L66.9209 561.393L72.084 551.079L83.8805 549.973L84.6099 543.704L93.0897 540.388L96.0416 535.966L97.5119 530.073L93.4544 525.275L95.6655 521.958L109.308 509.432L112.99 498.741L118.153 499.482L120.364 497.271L128.832 500.588L128.468 506.115L135.466 513.49L140.264 513.854L147.627 503.54L150.214 506.115L156.471 503.163L155.742 505.751L158.683 511.278L163.481 507.221L164.951 512.749L169.009 515.701L175.266 506.856L178.218 492.849L181.17 497.271L181.899 503.163L180.794 517.171L181.899 523.804L179.323 533.754L180.429 539.647L178.218 547.762L180.794 548.868L181.899 552.549L187.062 555.501V565.075L184.851 570.979L188.533 572.814L194.06 580.553L188.533 583.14L187.427 591.244L189.274 592.349L188.909 598.253L177.853 607.827L175.266 614.46L174.16 620.364L179.323 624.046L179.688 626.998L176.748 628.833L176.371 634.737L171.585 637.312L171.22 646.157L170.114 647.627L142.099 657.953L138.782 655.742L135.101 657.212L131.784 656.848L131.043 654.637L128.832 656.472L124.41 654.261L124.045 655.366L118.882 657.212L117.777 654.637L119.988 652.426L118.882 650.579L119.623 648.368L117.412 645.792L116.306 637.312L114.095 633.996H111.884L107.097 637.312L103.04 642.475L101.934 641.37L98.9822 642.099L95.3008 638.418L94.56 635.466L90.5138 633.631L84.2452 632.525L80.5638 630.314L77.2471 631.044L72.084 628.103L67.6618 624.41L63.9804 623.681L58.8173 624.787L55.8653 623.305L44.445 614.836L40.7522 614.46L37.8116 616.671L32.6485 617.412Z" fill="white" stroke="black" stroke-opacity="0.2"/>
<path fill-rule="evenodd" clip-rule="evenodd" d="M222.077 845.158L223.547 835.949L219.49 832.997L224.288 828.21L220.971 816.789L226.864 812.367L228.71 806.099L239.401 804.628L239.766 796.148L245.658 795.408V787.304L230.181 759.3L237.19 739.024L238.296 741.976L242.718 739.389L246.035 743.811L249.351 744.187V746.398L250.457 747.128L258.56 745.293L267.04 711.02L265.935 704.011L267.405 702.176H268.875L269.981 700.694L275.509 699.589L278.096 697.754L279.931 698.859L287.305 697.013L289.151 697.377L290.622 699.589L292.833 698.118L295.409 698.483L297.62 701.07H299.102L300.572 708.433L299.466 709.174L302.783 710.644L303.888 709.915L306.464 711.02L309.416 709.915L310.157 710.279L310.887 708.809L314.203 709.174L315.309 707.327L320.472 706.222L324.894 708.433L327.846 713.596L326.741 716.548L328.576 717.278L326.364 719.865L329.316 721.335L330.787 719.124L330.422 722.076H332.633L333.374 723.911L330.057 723.181L329.316 725.393L331.528 728.333L334.479 726.122L336.691 730.18L334.479 733.131L337.42 733.861L337.055 735.343L332.268 737.918L337.796 740.494V743.811L335.585 745.657L337.055 748.233L338.902 746.763L341.113 747.868L339.631 755.984L341.842 759.3L337.796 762.617L341.478 772.932L336.691 773.673L335.95 781.776L338.161 791.726L343.324 797.254L345.535 804.993V810.885L337.42 825.999L328.576 850.321L330.422 860.271L328.576 866.164L323.048 869.48L301.677 868.375L255.609 871.691L247.87 870.586L246.035 866.54L242.342 868.01L236.085 864.693L225.029 871.327V865.434L227.605 861.377L225.029 859.53L222.077 845.158Z" fill="white" stroke="black" stroke-opacity="0.2"/>
<path fill-rule="evenodd" clip-rule="evenodd" d="M330.422 860.27L328.576 850.32L337.42 825.998L345.535 810.885V804.992L343.324 797.253L338.161 791.726L335.95 781.776L336.691 773.672L341.478 772.931L337.797 762.616L341.843 759.3L339.632 755.983L341.113 747.868L338.902 746.762L337.056 748.233L335.585 745.657L337.797 743.81V740.494L332.269 737.918L337.056 735.342L337.42 733.86L334.48 733.131L336.691 730.179L334.48 726.121L331.528 728.333L329.317 725.392L330.058 723.181L333.374 723.91L332.633 722.075H330.422L330.787 719.123L329.317 721.334L326.365 719.864L328.576 717.277L326.741 716.548L327.846 713.596L324.895 708.432L354.38 703.646V705.857L357.321 706.962L354.745 708.809L357.697 711.02L356.956 714.701L369.858 716.912L375.75 724.286L390.863 722.44L392.71 720.229L393.439 721.699L392.71 724.651L395.286 725.392L394.545 727.227L390.863 727.603L388.652 733.496L389.017 735.707L392.334 737.553L386.806 740.87L386.441 744.187L383.125 747.127L377.961 763.346L378.326 768.509L380.913 769.25V771.461L376.491 776.989L378.326 779.564L375.75 783.987L378.702 792.831L382.748 794.678L384.971 790.985L387.182 795.042L370.587 808.674L357.321 833.737L352.898 851.791L355.109 856.954L359.167 857.318L355.85 860.635L354.38 859.906L351.793 856.954L344.054 860.635L330.422 860.27Z" fill="white" stroke="black" stroke-opacity="0.2"/>
<path fill-rule="evenodd" clip-rule="evenodd" d="M254.136 701.801L256.712 699.59L260.77 684.853L272.19 680.066L275.883 674.162L275.507 667.529L281.035 657.955L281.411 651.322L283.987 641.736L284.351 632.151L278.094 624.047L279.929 620.366L282.881 618.884L281.775 615.944L284.727 613.356L281.775 611.521L279.564 606.723L280.305 597.149L282.14 593.832L286.562 597.879L290.985 596.408L291.726 589.41L289.879 586.823L284.727 587.199L279.564 572.815L281.411 569.499L290.255 559.549L293.937 548.128L296.148 550.704L304.628 550.339L309.05 554.397L314.201 551.445L317.894 554.021L319.365 552.915L323.046 558.078L327.844 557.338L323.046 550.339L326.363 546.658V540.389L331.526 539.284L332.267 534.862L334.842 535.226L337.418 531.545L336.689 538.919L334.102 543.341L335.948 548.128L332.631 549.599L338.9 558.819L338.159 570.24L341.841 575.767L345.898 590.14L356.213 590.881L359.165 595.303L362.846 594.562L368.374 597.514L378.7 598.984L381.641 599.36L383.852 593.832L385.698 594.562L386.074 596.773H388.285L386.439 600.09L389.756 596.408L391.967 601.936L398.6 599.725L408.186 603.406L417.03 595.303L419.241 596.044L412.232 603.042L404.493 613.356L401.552 619.625L392.332 626.258L391.967 629.94L388.65 634.738L386.804 632.892L384.969 633.633L379.43 643.207L381.276 646.899L378.7 649.111L376.854 652.792L374.278 653.897L372.796 657.579H368.009L365.433 660.896V664.588L364.328 664.953L360.635 664.212L359.906 660.896L358.8 663.848L359.165 666.423L354.743 669.375L353.637 673.433L347.744 681.537L348.109 685.959L345.533 687.064L344.792 688.535L346.263 690.016H351.791L353.637 691.851L354.002 696.274L355.848 700.331L354.378 703.648L324.892 708.435L320.47 706.224L315.307 707.329L314.201 709.176L310.885 708.811L310.155 710.281L309.415 709.916L306.463 711.022L303.887 709.916L302.781 710.646L299.464 709.176L300.57 708.435L299.1 701.072H297.618L295.407 698.485L292.831 698.12L290.62 699.59L289.15 697.379L287.303 697.014L279.929 698.861L278.094 697.755L275.507 699.59L269.979 700.696L268.873 702.177H267.403L267.768 700.331H265.557L264.827 697.379L260.405 699.225L257.088 703.283L255.983 701.437L254.136 701.801Z" fill="white" stroke="black" stroke-opacity="0.2"/>
<path fill-rule="evenodd" clip-rule="evenodd" d="M31.1788 635.467L32.6491 632.526L31.1788 631.42L30.0732 627.363L32.6491 617.413L37.8122 616.672L40.7527 614.461L44.4455 614.837L55.8659 623.305L58.8178 624.787L63.9809 623.682L67.6623 624.411L72.0846 628.104L77.2476 631.044L80.5643 630.315L84.2457 632.526L90.5144 633.632L94.5605 635.467L95.3013 638.419L98.9827 642.1L101.935 641.371L103.04 642.476L107.098 637.313L111.885 633.996H114.096L116.307 637.313L117.413 645.793L119.624 648.369L118.883 650.58L119.988 652.426L117.777 654.637L118.883 657.213L124.046 655.367L124.411 654.261L128.833 656.472L131.044 654.637L131.785 656.848L135.102 657.213L138.783 655.743L142.1 657.954L170.115 647.628L171.95 652.426L170.844 657.213L174.161 665.317L172.326 666.422V670.845L169.009 672.326V674.537L165.693 674.161L163.105 678.219L167.904 684.852L166.798 688.91L163.846 690.015L159.789 685.217L153.155 681.9L114.837 707.704L98.2533 695.908L95.6661 697.754L96.4069 694.061L98.9827 692.956L94.5605 690.38L87.5624 681.171L86.0921 681.535L82.0346 678.219L82.7755 675.643L79.0826 674.537L80.1882 670.115L78.3532 667.163L72.8254 667.904L70.2382 664.211L66.5568 666.422L62.8754 666.058L56.2306 671.585L52.9139 671.221L46.6567 666.058L41.4936 656.472L42.5991 651.321L40.7527 647.628L35.9658 644.687L31.1788 635.467Z" fill="white" stroke="black" stroke-opacity="0.2"/>
<path fill-rule="evenodd" clip-rule="evenodd" d="M170.116 647.628L171.221 646.157L171.586 637.313L176.373 634.737L176.749 628.833L179.69 626.998L179.325 624.046L174.162 620.365L175.267 614.461L177.855 607.828L188.91 598.254L189.275 592.35L187.429 591.244L188.534 583.141L194.062 580.553L188.534 572.814L189.275 570.238L195.908 569.133L204.012 560.653V558.818L214.703 550.338L221.336 549.233L223.547 543.34L225.758 542.235L239.025 545.175L243.083 537.812H248.611L250.822 540.753L258.196 538.918L259.301 541.859L257.09 542.235L253.398 545.551L250.457 544.446L244.188 558.442L251.186 558.077L253.398 566.922L257.09 566.181L259.301 569.133H262.983L262.618 575.402L265.935 577.977L276.614 573.19L277.72 570.238L281.413 569.498L279.566 572.814L284.729 587.198L289.881 586.822L291.727 589.409L290.987 596.407L286.564 597.878L282.142 593.831L280.307 597.148L279.566 606.722L281.777 611.52L284.729 613.355L281.777 615.943L282.883 618.883L279.931 620.365L278.096 624.046L284.353 632.15L283.988 641.735L281.413 651.321L281.037 657.954L275.509 667.528L275.885 674.161L272.192 680.065L260.772 684.852L256.714 699.589L254.138 701.8L250.081 690.38L233.874 697.378L232.027 698.119L230.557 701.8L228.346 703.647V705.493L230.557 706.963V708.069L227.97 707.704L225.758 712.491H223.183L223.923 718.76L213.597 719.125L212.127 715.067L213.962 714.702V713.232L212.127 709.174L213.597 707.704L212.127 705.493L213.233 704.387H214.703L209.916 699.965H208.434L208.07 698.86L206.223 699.589L202.177 694.061L201.436 694.802L201.071 693.697H198.86L198.484 691.121L195.908 690.015L194.803 686.699L193.333 685.593L192.592 686.699H191.121L187.805 683.382L185.594 683.006L185.217 679.324L183.747 677.854H181.171L176.749 667.904L177.114 663.846L178.96 662L178.584 659.789L177.114 657.578L173.432 655.367L173.797 650.215L170.116 647.628Z" fill="white" stroke="black" stroke-opacity="0.2"/>
<path fill-rule="evenodd" clip-rule="evenodd" d="M163.846 690.013L166.798 688.908L167.904 684.85L163.105 678.217L165.693 674.159L169.009 674.536V672.324L172.326 670.843V666.421L174.161 665.315L170.844 657.211L171.95 652.424L170.115 647.626L173.796 650.213L173.432 655.365L177.113 657.576L178.583 659.787L178.959 661.998L177.113 663.845L176.748 667.902L181.171 677.852H183.746L185.217 679.323L185.593 683.004L187.804 683.38L191.121 686.697H192.591L193.332 685.591L194.802 686.697L195.908 690.013L198.483 691.119L198.859 693.695H201.071L201.435 694.8L202.176 694.06L206.222 699.587L208.069 698.858L208.433 699.963H209.915L214.702 704.386H213.232L212.126 705.491L213.597 707.702L212.126 709.173L213.961 713.23V714.7L212.126 715.065L213.597 719.123L223.923 718.758L223.182 712.489H225.758L227.969 707.702L230.556 708.067V706.962L228.345 705.491V703.645L230.556 701.798L232.026 698.117L233.873 697.376L250.08 690.378L254.138 701.798L255.984 701.434L257.09 703.28L260.406 699.223L264.828 697.376L265.558 700.328H267.769L267.404 702.175L265.934 704.01L267.04 711.019L258.56 745.291L250.456 747.126L249.351 746.397V744.186L246.034 743.81L242.717 739.388L238.295 741.975L237.189 739.023L230.18 759.299L245.658 787.303V795.406L239.765 796.147L226.499 798.723L216.172 797.253L213.597 792.466L216.172 792.831L217.654 787.667L211.385 784.727L209.915 779.929L213.232 776.988L208.433 774.036L211.021 771.825L210.645 768.873L212.856 768.144L211.385 763.345L209.174 766.662L207.328 762.98L204.752 763.345L201.435 757.088L198.483 758.193L198.859 752.29L194.437 754.501L192.956 752.666L190.744 753.03L192.226 748.232L190.015 744.915L187.063 743.445L181.171 744.915L178.219 743.08L175.643 744.551L169.374 739.764L162.376 720.228L164.211 717.276L162.376 694.436L163.846 690.013Z" fill="white" stroke="black" stroke-opacity="0.2"/>
<path fill-rule="evenodd" clip-rule="evenodd" d="M259.301 541.858L263.347 540.753L261.512 535.601L265.194 533.39H262.618L260.407 530.438L264.088 522.699L271.462 520.853L275.508 514.595L279.931 512.008L280.672 500.953L289.151 494.695L288.046 491.379L285.458 489.532L284.729 485.475L287.67 482.899L287.305 480.323L290.257 482.158L291.362 478.841H297.255L301.677 475.525L297.996 460.788L291.727 457.106L284.729 446.051L282.142 437.936L287.305 433.149L284.729 430.561V428.726L280.307 426.88L333.738 420.987L337.796 420.611L335.585 436.465L341.842 459.317L347.746 459.682L345.9 465.575L354.744 469.267L357.696 475.525L356.59 481.052L366.164 505.375L368.011 507.586L371.328 507.221L354.379 517.171H349.957L344.053 523.064L339.631 524.169L337.42 531.544L334.844 535.225L332.268 534.86L331.527 539.282L326.364 540.388V546.657L323.048 550.338L327.846 557.336L323.048 558.077L319.366 552.914L317.896 554.019L314.203 551.444L309.051 554.396L304.629 550.338L296.149 550.703L293.938 548.127L290.257 559.547L281.412 569.497L277.72 570.238L276.614 573.19L265.934 577.977L262.618 575.401L262.983 569.133H259.301L257.09 566.181L253.397 566.921L251.186 558.077L244.188 558.442L250.457 544.446L253.397 545.551L257.09 542.234L259.301 541.858Z" fill="white" stroke="black" stroke-opacity="0.2"/>
<path fill-rule="evenodd" clip-rule="evenodd" d="M285.459 289.048L290.258 284.261L293.939 283.156L295.41 277.252L303.889 266.196L308.312 261.774L318.626 258.457L321.578 260.668L324.53 256.987L331.528 258.093L341.478 254.776L349.217 259.563H352.169L354.38 263.256L358.062 260.668H360.638L364.33 255.517L372.069 254.776L373.175 259.563L377.597 258.457L380.914 252.2L378.703 246.296L382.384 242.979L391.229 247.037L397.133 245.191L393.075 269.889L394.921 279.098L394.545 286.837L398.968 285.367L406.342 290.519L412.61 292L409.658 296.046L410.764 304.161L408.553 305.267L397.862 311.536L396.756 318.169L391.969 325.532L390.123 338.069L386.806 341.01L394.545 361.286L394.921 369.39L392.71 372.706L382.749 377.869L381.643 373.812L376.856 370.495L375.386 374.553L372.799 375.658L369.117 369.754V364.967L362.849 363.121L362.119 364.967L349.217 368.284L345.901 373.447L340.738 371.965L332.634 373.447L331.893 364.603L336.691 357.593L337.056 353.547L328.212 349.489L329.317 343.962L334.48 337.328L328.576 332.906L323.425 327.378L319.367 326.637L314.58 329.954L304.254 318.534L304.995 314.112L302.784 310.43L303.889 292.365L296.515 293.471L285.459 289.048Z" fill="white" stroke="black" stroke-opacity="0.2"/>
<path fill-rule="evenodd" clip-rule="evenodd" d="M180.795 517.171L189.639 493.214L189.274 489.167L194.061 485.851L192.591 478.477L194.437 472.949L195.908 469.997L201.071 471.102L203.282 465.575L206.222 465.951L211.021 453.789L213.597 453.049L217.278 446.415L217.654 444.204L213.232 442.722L213.597 433.149L217.278 432.043L221.336 427.621L223.547 427.985L280.306 426.88L284.729 428.726V430.561L287.305 433.149L282.141 437.935L284.729 446.051L291.727 457.106L297.995 460.788L301.677 475.525L297.255 478.841H291.362L290.257 482.158L287.305 480.323L287.669 482.899L284.729 485.475L285.458 489.532L288.045 491.379L289.151 494.695L280.671 500.952L279.93 512.008L275.508 514.595L271.462 520.853L264.088 522.699L260.406 530.438L262.618 533.39H265.193L261.512 535.601L263.347 540.753L259.301 541.858L258.195 538.918L250.821 540.753L248.61 537.812H243.082L239.025 545.175L225.758 542.234L223.547 543.34L221.336 549.232L214.702 550.338L204.011 558.818V560.653L195.908 569.133L189.274 570.238L188.534 572.814L184.852 570.979L187.063 565.075V555.501L181.9 552.549L180.795 548.868L178.219 547.762L180.43 539.647L179.324 533.755L181.9 523.805L180.795 517.171Z" fill="white" stroke="black" stroke-opacity="0.2"/>
<path fill-rule="evenodd" clip-rule="evenodd" d="M77.2492 346.539L84.9881 350.597L94.1973 349.856L100.831 352.808L105.253 346.539L117.049 345.81L123.307 351.702L129.211 352.808L132.151 352.067L136.573 343.598L145.053 342.858L146.9 334.013L150.581 333.648L153.157 324.804L158.32 323.698L160.896 319.641L166.8 322.217L172.327 317.43L173.798 319.276L171.222 325.169L174.539 326.274L175.644 332.167L179.69 336.965V341.011L184.489 339.176L187.429 341.011L191.851 335.483L192.228 331.437L203.283 321.487L205.859 320.382L212.492 323.698L215.068 321.487L221.713 320.382L222.078 322.593L240.507 328.121L239.767 330.696L243.083 331.437H248.246L248.611 335.86L253.033 340.646L242.342 371.237L238.661 376.024L240.507 380.082L239.402 384.128L240.507 385.61L236.815 393.349L239.026 395.925L234.98 402.193L232.028 402.923L232.769 406.98L230.922 409.556L226.5 411.038L219.867 419.141L220.231 423.199L223.924 423.928L223.548 427.986L221.337 427.621L217.279 432.043L213.598 433.149L209.176 427.986L203.648 431.667L196.65 426.88L192.957 430.197L191.851 425.41L162.742 440.888L154.262 425.775L149.475 402.923L128.834 412.143L125.153 408.45L123.683 400.711L120.731 407.345L110.416 405.134L102.301 409.191L98.6196 406.615L87.9287 413.249L86.0937 418.036L87.1993 424.669L84.612 429.091L75.7675 422.823L71.7214 412.508L68.7695 413.249L62.5008 404.769L63.6064 398.5H58.8194L57.3491 394.078L60.6658 385.974L59.1841 382.293L59.925 373.449L65.088 368.65L68.0286 355.019L66.5583 352.443H70.9806L77.2492 346.539Z" fill="white" stroke="black" stroke-opacity="0.2"/>
<path fill-rule="evenodd" clip-rule="evenodd" d="M240.507 385.609L239.401 384.127L240.507 380.081L238.661 376.023L242.342 371.236L253.033 340.645L248.611 335.859L248.246 331.436H243.083L239.766 330.695L240.507 328.12L240.872 325.532L245.294 324.427L247.14 320.745L253.398 317.793L260.772 310.054L267.405 312.642L281.778 296.047L285.459 289.049L296.515 293.471L303.889 292.366L302.783 310.431L304.994 314.112L304.253 318.534L314.58 329.955L319.367 326.638L323.424 327.379L328.576 332.907L334.48 337.329L329.317 343.962L328.211 349.49L337.056 353.547L336.691 357.594L331.892 364.603L332.633 373.448L340.737 371.966L345.9 373.448L343.689 383.398L330.057 385.609L325.635 384.127L321.213 385.973L317.155 378.975L311.628 381.916L306.1 379.34L304.994 382.657L296.515 380.81L290.622 390.396L285.094 389.655L275.885 397.029L274.779 393.712L270.357 394.077L260.772 389.655L254.138 392.607L246.035 391.501L240.507 385.609Z" fill="white" stroke="black" stroke-opacity="0.2"/>
<path fill-rule="evenodd" clip-rule="evenodd" d="M337.42 531.543L339.631 524.169L344.053 523.063L349.957 517.171H354.379L371.327 507.221L368.011 507.585L366.164 505.374L356.59 481.052L357.696 475.524L354.744 469.267L345.899 465.574L347.746 459.681L341.842 459.317L335.585 436.465L337.796 420.611L363.953 419.505L373.903 423.563L376.114 416.188L383.124 425.409L388.651 428.35L389.757 432.772L388.287 437.935L392.333 442.722L400.072 446.779L411.127 448.991L409.292 456.365L413.339 478.111L411.127 484.745L412.233 491.743L418.137 503.163L413.715 508.326L415.55 513.489L410.763 519.017L416.29 524.91L415.185 536.33L422.559 543.704L424.77 559.923L422.559 564.71V562.134L419.242 561.393L412.974 564.71L410.763 573.554L411.868 579.823L416.29 584.245L418.502 581.658L423.665 582.763L425.5 579.447L425.876 587.197L420.713 596.771L419.242 596.042L417.031 595.301L408.187 603.404L398.602 599.723L391.968 601.934L389.757 596.406L386.44 600.088L388.287 596.771H386.076L385.699 594.56L383.853 593.83L381.642 599.358L378.701 598.982L368.375 597.512L362.847 594.56L359.166 595.301L356.214 590.879L345.899 590.138L341.842 575.765L338.16 570.238L338.901 558.817L332.633 549.597L335.949 548.126L334.103 543.339L336.69 538.917L337.42 531.543Z" fill="white" stroke="black" stroke-opacity="0.2"/>
<path fill-rule="evenodd" clip-rule="evenodd" d="M84.6099 429.09L87.1971 424.668L86.0915 418.034L87.9265 413.247L98.6174 406.614L102.299 409.19L110.414 405.132L120.729 407.343L123.681 400.71L125.151 408.449L128.832 412.142L149.473 402.921L154.26 425.773L162.74 440.886L191.849 425.408L192.955 430.195L196.648 426.879L203.646 431.666L209.174 427.984L213.596 433.147L213.231 442.721L217.653 444.203L217.277 446.414L213.596 453.047L211.02 453.788L206.222 465.949L203.281 465.573L201.07 471.101L195.907 469.996L194.437 472.948L192.59 478.475L194.06 485.85L189.273 489.166L189.638 493.212L180.794 517.17L181.899 503.162L181.17 497.27L178.218 492.848L175.266 506.855L169.009 515.7L164.951 512.748L163.481 507.22L158.682 511.277L155.742 505.75L156.471 503.162L150.214 506.114L147.627 503.539L140.264 513.853L135.466 513.489L128.468 506.114L128.832 500.587L120.364 497.27L118.153 499.481L112.99 498.74L112.249 492.107L116.306 479.581L112.625 476.264L117.777 469.631L118.153 464.844L113.731 455.623L89.7729 439.405L84.6099 429.09Z" fill="white" stroke="black" stroke-opacity="0.2"/>
<path fill-rule="evenodd" clip-rule="evenodd" d="M-64.2749 229.714L-62.4285 226.033L-56.536 223.821L-52.4785 218.658L-44.7395 213.871L-41.4228 203.557L-30.732 202.451L-27.0505 199.499L-25.5803 193.971L-18.2061 189.184L-15.2541 191.76L-1.98737 187.338L14.596 192.866L25.6517 188.444L32.285 178.129L35.6017 177.023L40.3887 179.599L45.1756 176.282L53.2907 174.812L57.3482 176.647L65.0871 167.438L67.2982 157.853L72.0852 153.43L76.5075 153.066L76.8722 149.749L79.8241 147.902L84.6111 147.173V144.962L88.3039 147.902L92.7262 160.064L89.7742 167.438L96.4076 170.39L96.7723 172.601L90.1389 175.177L89.0334 178.493H85.3519L82.7761 187.703L80.565 186.597L78.7186 189.184L72.0852 188.808V190.655L62.4999 192.866L62.876 196.547L60.2888 198.758L54.0201 199.864L53.6554 197.288L49.974 197.653L50.7034 201.346H48.4923L44.8109 206.873L36.3311 203.921L34.8609 205.027L37.4367 211.296H34.8609L35.2256 213.871H31.9089V219.764L28.2275 221.61L31.1795 224.186L30.4386 229.349L29.3331 229.714L26.7572 235.242L29.6978 239.299L27.8628 237.829L25.2755 244.086L22.335 239.664L11.6441 238.558L-0.881809 245.933L-12.3135 246.297L-16.7358 249.249L-16.3597 255.883L-21.5227 258.835L-21.8875 262.151L-37.0006 259.564L-43.2692 261.411L-48.0562 265.092L-52.8432 254.036L-55.7951 251.825L-56.1599 246.674L-59.8527 242.251L-59.4765 233.407L-62.7932 231.56L-64.2749 229.714Z" fill="white" stroke="black" stroke-opacity="0.2"/>
<path fill-rule="evenodd" clip-rule="evenodd" d="M-67.5923 97.0469L-60.2181 99.9988L-49.1625 109.208L-47.6922 109.573L-48.0569 102.575L-46.5866 99.6227L-54.3256 89.6727L-51.3736 84.1449L-55.4311 76.0412H-52.8439L-52.4792 74.1948L-53.9494 73.0893L-52.1144 71.2543L-52.8439 51.7189L-38.4716 57.6114L-35.8957 55.7764L-21.8882 54.2947L-10.1031 55.7764L-5.68088 58.3522L-3.83448 56.882L-4.57532 49.5078L-8.25672 42.1336L-3.46976 38.4521L-1.25864 42.1336L5.75085 44.3447L10.1731 50.2486L15.3248 52.0836L17.912 57.2467L22.3343 58.717L22.699 60.5634L27.8621 62.0336L29.6971 69.4079L38.5415 72.3598L36.7066 74.9357L38.5415 76.4059L39.6471 83.4154L44.8102 84.521L50.338 81.2043L54.3955 83.0393L56.2305 88.9432L52.1844 97.0469L60.288 99.258L60.6642 108.467L63.24 112.16L65.8159 124.686L65.0864 126.897L68.4031 129.849L68.027 132.425H69.8734L72.0845 140.164L79.8234 147.903L76.8715 149.749L76.5067 153.066L72.0845 153.43L67.2975 157.853L65.0864 167.438L57.3475 176.647L53.29 174.812L45.1749 176.283L40.388 179.599L35.601 177.023L32.2843 178.129L25.6509 188.444L14.5953 192.866L-1.98808 187.338L-15.2548 191.76L-18.2068 189.185L-25.581 193.972L-27.0513 199.499L-30.7327 202.451L-41.4235 203.557L-43.9994 200.24L-42.8938 197.653L-49.9033 186.973L-47.6922 177.023L-48.7978 176.283L-46.9514 174.436L-45.8458 169.284L-36.2605 160.805L-50.6328 152.701L-46.2105 144.221L-49.1625 138.317L-52.4792 125.051L-52.1144 118.053L-54.3256 113.266L-52.1144 112.889L-57.6422 106.997L-66.4867 102.21L-65.005 99.6227L-67.5923 97.0469Z" fill="white" stroke="black" stroke-opacity="0.2"/>
<path fill-rule="evenodd" clip-rule="evenodd" d="M-51.7378 321.11L-44.375 317.064L-38.471 318.169L-32.5785 322.216L-30.0027 334.377L-27.7915 326.638L-19.3118 320.381L-14.5248 326.273L-7.1506 321.11L-7.89144 325.167L-6.40976 327.379L-8.62088 330.331H-7.1506L-8.25616 335.118L-1.98752 328.484L-1.6228 325.167L-0.152515 330.695L2.05861 328.849L0.588326 324.062L3.16417 320.745L4.26973 312.642L5.75141 320.381L10.1737 317.064L10.9031 318.534L6.48085 327.743L7.58641 331.801L5.75141 336.588L9.79753 333.647L8.69197 335.858L12.0087 335.118L10.9031 339.175L13.8551 336.223V339.175L12.0087 343.221L7.22169 345.808L5.75141 351.701L9.06809 352.442V356.864L5.01057 358.699L3.90501 362.016L5.75141 373.071L3.54029 377.87L4.26973 382.657L10.9031 386.714L18.2773 386.338L23.4404 395.183H27.1218L30.0738 401.816H32.6496L34.496 399.981L36.331 401.086V402.557L34.8607 401.451L30.4385 405.133H25.2754L23.8051 401.086L21.9587 401.451L17.5365 395.923L12.3848 393.712L7.58641 388.925L0.223602 390.396L-6.04504 386.338L-8.997 386.714L-10.4673 389.655L-15.9951 390.396L-18.2062 388.549L-17.8415 385.609L-23.3693 386.338L-27.7915 390.76L-28.521 386.338L-22.9932 380.081L-20.0526 381.551L-15.6304 378.599L-16.3598 377.129L-13.4192 377.87L-14.5248 373.071L-10.1026 375.282L-10.4673 366.073L-13.0431 366.438L-20.4173 374.553L-29.2618 376.764L-30.7321 373.071L-23.734 367.179L-30.7321 364.968L-35.1543 360.545L-33.6841 363.497L-41.0583 371.966L-45.8452 374.177L-53.2194 367.92L-55.4306 369.755L-59.112 365.332L-55.7953 354.653L-58.0064 351.701L-54.6897 349.855L-54.325 348.02L-46.5861 353.912L-42.1638 352.066L-42.8933 348.02L-46.9508 349.49V345.068L-52.4786 345.808L-53.9489 343.962L-52.8433 342.116L-55.4306 340.645L-54.325 333.271L-60.2175 335.482L-51.7378 321.11Z" fill="white" stroke="black" stroke-opacity="0.2"/>
<path fill-rule="evenodd" clip-rule="evenodd" d="M27.121 395.182V392.242L22.6987 386.338L27.4857 379.704L25.6507 378.975L25.2746 373.447L23.4396 371.601V366.073L31.9079 354.276L35.2246 347.278L37.4357 339.175L40.7524 334.012L38.9174 331.436L39.2821 328.849L37.4357 321.486L40.3877 314.476L39.6469 308.948L38.9174 305.996L35.9655 304.161L35.6007 302.315L33.0135 301.209L31.5432 290.519L31.9079 286.837L34.8599 280.204L37.8119 278.734L40.7524 274.676L38.9174 266.937L40.3877 264.361L48.4914 257.728L48.1266 252.93L54.0192 248.883L56.9711 249.613L65.4509 245.567L69.5084 247.037H72.8251L76.8712 242.979L83.8807 247.778L93.8307 248.883L98.6177 257.728L98.9824 261.045L104.51 265.091L110.779 273.57L104.886 280.569L100.464 281.674V285.367L97.5122 288.307L96.4066 295.317L88.6677 295.682L79.0823 303.785L82.399 310.43L77.9768 316.323L79.8232 320.004L79.0823 325.908L81.2935 332.906L76.5065 336.964L77.9768 340.28L81.2935 341.01L77.2473 346.537L70.9787 352.441H66.5564L68.0267 355.017L65.0862 368.649L59.9231 373.447L59.1822 382.292L60.6639 385.973L57.3472 394.077L58.8175 398.499H63.6045L62.4989 404.768L68.7676 413.247L71.7195 412.506L75.7657 422.821L84.6101 429.09L89.7732 439.405L83.5046 444.932L70.9787 442.721L61.7695 444.932L53.2897 441.992L45.9155 437.57L43.7044 425.773L36.3302 420.986L34.8599 413.247L36.3302 402.556V401.086L34.4952 399.981L32.6488 401.816H30.0729L27.121 395.182Z" fill="white" stroke="black" stroke-opacity="0.2"/>
<path fill-rule="evenodd" clip-rule="evenodd" d="M76.8718 237.829L64.7106 234.877L56.6069 226.773H59.1828L58.4533 223.821L62.8756 221.245L71.7201 209.814V202.451L79.0829 192.501L78.7182 189.184L80.5646 186.597L82.7757 187.702L85.3515 178.493H89.0329L90.1385 175.176L96.7719 172.601L96.4071 170.389L89.7738 167.437L92.7257 160.063L88.3035 147.902L84.6107 144.962H91.6202L94.196 143.115L94.5607 133.165L98.6183 133.895L107.463 128.002L110.779 124.685V121.733L114.461 121.004L122.941 129.108V133.895L141.735 133.165L146.522 150.854L153.896 154.912L158.319 152.7L162 153.43L165.693 149.748L173.432 154.912L180.43 167.073L184.111 160.063V154.535L189.639 155.276L192.591 152.7L188.169 148.643H193.697L194.802 144.221L203.647 142.01L210.645 146.797L204.387 159.334L193.332 171.119L192.956 189.549L185.217 195.441L185.958 204.286L182.276 209.814L177.854 213.506L173.432 214.236L170.844 213.506L164.211 215.341L163.106 216.823L159.789 215.717L157.213 216.082L157.954 212.765L149.474 216.447L140.63 215.717L138.054 218.293L131.044 216.823L128.833 219.399L126.257 217.929L115.202 224.562L104.887 227.502L101.57 225.291L96.4071 226.773L90.5146 226.032L88.3035 227.138L84.9868 230.819L80.9293 233.03L76.8718 237.829Z" fill="white" stroke="black" stroke-opacity="0.2"/>
<path fill-rule="evenodd" clip-rule="evenodd" d="M185.958 204.285L185.217 195.44L192.956 189.548L193.332 171.118L204.387 159.333L210.645 146.796L203.647 142.009L194.802 144.22L193.697 148.642H188.169L185.217 142.374L187.428 143.114L189.639 139.798L186.698 136.481L191.85 134.999L197.754 137.951L202.176 137.21L206.222 133.164L209.174 137.21L209.915 130.953L207.328 122.473L219.865 116.581L224.288 107.36L223.547 101.832L226.499 99.9975L223.547 94.4697L224.288 91.153L232.026 85.6252L230.18 82.3085L232.391 78.9918L234.978 79.7213L237.554 77.5102L232.391 69.0418V66.0898L236.813 60.562L243.447 61.6676L246.399 56.1398L253.032 55.7751L256.349 53.5639V51.7175L262.241 48.0361L268.875 51.3528L267.769 56.5045L275.143 64.2434V67.9362L269.616 69.4065L270.721 75.299L274.403 77.1454L280.671 90.0474L284.729 93.7288L292.468 94.0936L300.207 103.314L309.78 107.736L305.358 112.159L307.945 115.475L301.677 122.109L303.147 126.155L298.36 131.318L290.257 134.635L281.777 143.479L279.566 143.114L274.779 147.172L269.98 147.901L268.875 149.383L270.356 150.853L266.299 155.276L262.241 156.381L260.406 160.439L254.502 159.698L252.291 164.12L247.869 163.379L243.823 168.178L241.236 168.542L240.871 169.648L237.19 171.118H234.602L232.767 172.224L234.238 172.964L232.767 177.387L229.451 178.128L227.24 180.703L220.23 184.02L217.654 187.702L213.961 190.289L213.232 192.865L209.539 194.335L205.117 198.392H199.589L195.543 202.074L191.85 202.45L189.639 204.285H185.958Z" fill="white" stroke="black" stroke-opacity="0.2"/>
<path fill-rule="evenodd" clip-rule="evenodd" d="M77.2477 346.538L81.2938 341.01L77.9771 340.281L76.5068 336.964L81.2938 332.907L79.0827 325.909L79.8235 320.005L77.9771 316.323L82.3994 310.431L79.0827 303.786L88.668 295.682L96.4069 295.318L110.038 303.057L119.259 303.786L121.835 306.373L128.103 303.057L132.15 298.634L130.679 296.047L134.361 289.049L145.416 288.684L150.944 291.26L153.531 293.471L155.002 291.26L163.481 289.414L166.422 283.521L173.055 281.31L176.748 276.147L189.639 273.207L192.955 276.523L197.378 268.408L210.28 261.045L213.232 255.518L215.067 258.093L219.124 257.729V260.305L222.817 263.257L224.652 273.207L230.556 272.83L230.921 275.042L237.189 279.84L240.871 275.782L244.552 276.523L241.235 280.569L243.447 287.203L242.717 296.423L244.552 297.894L239.765 304.162L246.034 310.796L249.715 311.901L253.397 317.794L247.139 320.746L245.293 324.427L240.871 325.533L240.506 328.12L222.076 322.592L221.711 320.381L215.067 321.487L212.491 323.698L205.857 320.381L203.282 321.487L192.226 331.437L191.85 335.483L187.428 341.01L184.487 339.175L179.689 341.01V336.964L175.643 332.166L174.537 326.273L171.22 325.168L173.796 319.275L172.326 317.429L166.798 322.216L160.894 319.64L158.318 323.698L153.155 324.803L150.579 333.648L146.898 334.012L145.052 342.857L136.572 343.598L132.15 352.066L129.209 352.807L123.305 351.701L117.048 345.809L105.251 346.538L100.829 352.807L94.1958 349.855L84.9866 350.596L77.2477 346.538Z" fill="white" stroke="black" stroke-opacity="0.2"/>
<path fill-rule="evenodd" clip-rule="evenodd" d="M76.8723 242.981V237.829L80.9298 233.031L84.9874 230.82L88.304 227.138L90.5152 226.033L96.4077 226.774L101.571 225.292L104.887 227.503L115.202 224.563L126.258 217.929L128.834 219.4L131.045 216.824L138.054 218.294L140.63 215.718L149.475 216.448L157.954 212.766L157.214 216.083L159.789 215.718L163.106 216.824L164.212 215.342L170.845 213.507L173.432 214.236L177.854 213.507L182.277 209.814L185.958 204.286H189.64L191.851 202.451L195.543 202.075L199.59 198.394H205.117L209.54 194.336L213.232 192.866L213.962 190.29L217.655 187.703L220.231 184.022L227.24 180.705L229.451 178.129L232.768 177.388L234.238 172.966L232.768 172.225L234.603 171.12H237.19L240.871 169.649L241.236 168.544L243.823 168.179L247.87 163.381L252.292 164.121L254.503 159.699L260.407 160.44L253.773 176.283V179.964L258.196 178.494L267.405 181.446L264.088 184.762L264.453 191.76L261.512 191.02L257.09 198.029L251.562 199.864L258.925 221.975L260.031 234.137L251.927 234.513L239.025 248.144L230.921 248.509L228.346 252.931L213.597 253.672L213.232 255.518L210.28 261.046L197.378 268.409L192.956 276.524L189.64 273.207L176.749 276.148L173.056 281.311L166.423 283.522L163.482 289.415L155.002 291.261L153.532 293.472L150.945 291.261L145.417 288.685L134.361 289.05L130.68 296.048L132.15 298.635L128.104 303.057L121.836 306.374L119.26 303.787L110.039 303.057L96.4077 295.319L97.5133 288.309L100.465 285.368V281.676L104.887 280.57L110.78 273.572L104.511 265.092L98.9835 261.046L98.6188 257.729L93.8318 248.885L83.8818 247.779L76.8723 242.981Z" fill="white" stroke="black" stroke-opacity="0.2"/>
<path fill-rule="evenodd" clip-rule="evenodd" d="M213.233 255.518L213.598 253.672L228.346 252.931L230.922 248.508L239.026 248.144L251.928 234.512L260.031 234.136L258.926 221.975L251.563 199.864L257.091 198.029L261.513 191.019L264.454 191.76L264.089 184.762L267.406 181.445L269.252 182.175L271.463 185.127L275.145 184.021L284.73 188.079L292.469 200.24L297.621 200.969L295.786 206.497L299.102 214.977H303.148L304.63 217.929L306.841 214.977L311.263 215.718L311.993 217.553L307.571 221.975L304.254 234.512L307.206 243.721L303.889 250.355L306.465 258.458L303.148 264.727L303.889 266.197L295.409 277.253L293.939 283.157L290.258 284.262L285.459 289.049L281.778 296.048L267.406 312.642L260.772 310.055L253.398 317.794L249.717 311.902L246.035 310.796L239.767 304.163L244.554 297.894L242.719 296.424L243.448 287.203L241.237 280.57L244.554 276.524L240.872 275.783L237.191 279.84L230.922 275.042L230.557 272.831L224.653 273.207L222.818 263.257L219.126 260.305V257.729L215.068 258.094L213.233 255.518Z" fill="white" stroke="black" stroke-opacity="0.2"/>
<path fill-rule="evenodd" clip-rule="evenodd" d="M333.738 420.988V409.192L339.631 406.24L341.477 401.818L339.266 400.712L341.842 397.031L340.736 391.138L343.688 383.399L345.899 373.449L349.216 368.286L362.118 364.969L362.847 363.123L369.116 364.969V369.756L372.797 375.66L375.385 374.555L376.855 370.497L381.642 373.814L382.747 377.871L392.709 372.708L394.92 369.392L405.235 380.083L402.659 386.716L411.503 395.56L408.551 404.77V412.509L401.177 413.614L397.131 417.296L398.237 419.507L396.026 424.67L396.755 433.879L393.074 436.466L389.757 432.773L388.651 428.351L383.124 425.411L376.114 416.19L373.903 423.564L363.953 419.507L337.796 420.612L333.738 420.988Z" fill="white" stroke="black" stroke-opacity="0.2"/>
<path fill-rule="evenodd" clip-rule="evenodd" d="M260.406 160.44L262.241 156.383L266.299 155.277L270.356 150.855L268.874 149.384L269.98 147.903L274.778 147.173L279.565 143.116L281.776 143.481L290.256 134.636L298.36 131.319L303.523 136.847L303.888 142.01L304.993 143.116L308.31 147.173L302.782 154.171L299.83 154.912L305.358 156.383V158.958L302.417 161.91V165.227L307.945 168.544L310.521 174.071L319.001 177.023L324.152 187.703L327.845 186.973L329.316 189.914L332.268 189.185L334.479 193.607L334.843 204.662L331.891 207.238L332.997 208.709L336.314 209.814L334.843 212.766L340.006 211.296L341.477 208.344L349.216 209.814L347.369 207.238L349.957 206.497V208.344L351.792 207.238L355.849 211.296L355.108 209.085L357.319 209.449L356.955 212.766L353.638 216.083L349.216 216.824L345.899 219.764L335.949 224.927L336.314 231.925L324.152 243.357L308.31 261.776L303.888 266.198L303.147 264.727L306.464 258.459L303.888 250.355L307.204 243.722L304.252 234.513L307.569 221.975L311.991 217.553L311.262 215.718L306.84 214.977L304.629 217.929L303.147 214.977H299.101L295.784 206.497L297.619 200.97L292.467 200.24L284.728 188.079L275.143 184.022L271.462 185.127L269.251 182.175L267.404 181.446L258.195 178.494L253.773 179.964V176.283L260.406 160.44Z" fill="white" stroke="black" stroke-opacity="0.2"/>
<path fill-rule="evenodd" clip-rule="evenodd" d="M397.131 245.192L414.079 240.405L419.242 242.981L421.818 238.194L426.24 239.299L428.087 235.618L430.663 235.242V239.299L432.874 239.664L433.615 237.829L436.19 238.558L436.555 233.031L439.507 234.136L442.083 228.984L443.929 229.349L444.67 245.192L447.987 250.355L452.409 251.096L450.198 254.777L451.304 256.988L447.246 259.94L447.611 263.986L445.4 265.092L448.716 275.418L451.304 276.523L446.505 280.946L446.881 278.735L441.718 274.312L442.459 272.101L440.248 269.89L435.085 270.996L430.663 286.474L431.768 292.001L434.344 293.107L429.192 296.047L429.557 299.364L432.133 299.74L429.557 304.892L427.711 307.479L425.135 307.103L422.924 311.537L417.761 310.796L414.444 306.374L408.551 305.268L410.762 304.163L409.657 296.047L412.609 292.001L406.34 290.52L398.966 285.368L394.544 286.838L394.92 279.099L393.073 269.89L397.131 245.192Z" fill="white" stroke="black" stroke-opacity="0.2"/>
<path fill-rule="evenodd" clip-rule="evenodd" d="M223.547 427.986L223.923 423.928L220.231 423.199L219.866 419.141L226.499 411.038L230.922 409.556L232.768 406.98L232.027 402.923L234.979 402.193L239.025 395.925L236.814 393.349L240.507 385.61L246.035 391.502L254.138 392.608L260.772 389.656L270.357 394.078L274.779 393.714L275.885 397.03L285.094 389.656L290.622 390.397L296.514 380.812L304.994 382.658L306.1 379.341L311.628 381.917L317.155 378.977L321.213 385.975L325.635 384.128L330.057 385.61L343.689 383.399L340.737 391.138L341.842 397.03L339.267 400.712L341.478 401.817L339.631 406.239L333.739 409.191V420.988L280.307 426.88L223.547 427.986Z" fill="white" stroke="black" stroke-opacity="0.2"/>
<path fill-rule="evenodd" clip-rule="evenodd" d="M308.31 261.775L324.153 243.357L336.314 231.925L335.949 224.927L345.899 219.764L349.216 216.823L353.638 216.082L356.955 212.766L357.319 209.449L355.108 209.084L355.849 211.295L351.792 207.238L349.957 208.344V206.497L347.369 207.238L349.216 209.814L341.477 208.344L340.007 211.295L334.844 212.766L336.314 209.814L332.997 208.708L331.892 207.238L334.844 204.662L334.479 193.606L332.268 189.184L329.316 189.914L327.845 186.973L324.153 187.703L319.001 177.023L310.521 174.071L307.945 168.543L302.418 165.227V161.91L305.358 158.958V156.382L299.83 154.912L302.782 154.171L308.31 147.173L304.993 143.115L309.78 140.904H315.684L319.366 137.211L318.26 131.319L319.73 130.578L325.258 132.06L326.74 130.954L328.951 131.319L331.892 139.423L338.901 139.058L341.477 137.211L343.323 137.588L346.64 135.741L349.581 136.847L353.638 134.636L355.484 135.376L359.166 132.789L360.636 134.271H363.223L363.953 135L363.223 139.799L367.646 142.375L366.54 144.962L370.586 151.96L366.164 150.114L363.588 150.854L362.483 151.96L364.329 151.595L365.435 153.43L363.588 158.229L366.164 163.756L366.54 167.438L368.375 169.284L371.327 168.908L372.433 174.812L374.644 175.918L375.385 177.753L377.596 179.599H379.431L407.446 176.647L408.916 177.388L408.551 178.858H409.292L410.022 181.81L408.187 182.175L404.87 199.499L403.024 200.969L403.388 214.977L408.551 230.819L414.079 240.405L397.131 245.192L391.227 247.038L382.383 242.981L378.701 246.297L380.912 252.201L377.596 258.458L373.173 259.564L372.068 254.777L364.329 255.518L360.636 260.67H358.06L354.379 263.257L352.168 259.564H349.216L341.477 254.777L331.527 258.094L324.529 256.988L321.577 260.67L318.625 258.458L308.31 261.775Z" fill="white" stroke="black" stroke-opacity="0.2"/>
<rect x="1" y="-2" width="594" height="842" fill="url(#paint0_radial_11039_2993)"/>
<mask id="path-38-outside-1_11039_2993" maskUnits="userSpaceOnUse" x="408" y="278" width="135" height="280" fill="black">
<rect fill="white" x="408" y="278" width="135" height="280"/>
<path fill-rule="evenodd" clip-rule="evenodd" d="M448.435 345.593L444.743 345.969L445.119 338.595L448.059 334.172L450.647 333.432L451.376 329.75L455.798 330.856L453.222 322.752L444.743 322.376L440.32 326.798L444.013 320.906L451.752 318.33L455.069 308.745L466.124 313.532L474.593 314.272L478.286 308.745L493.387 307.263L504.078 301.37L504.819 293.631L503.337 291.42V296.948L500.397 286.998L502.608 283.681L507.03 285.152L510.712 280L513.664 281.835V293.996L516.604 295.102L519.921 306.157L525.084 313.532L534.669 318.33L537.986 311.697L541.303 316.119L540.926 320.541L535.034 322.376L532.458 331.221V340.806L524.343 345.593L510.712 366.234L505.549 376.925L503.714 391.297L506.654 397.189L507.395 395.719H512.182L508.865 401.976V407.88L504.819 408.61L500.397 416.725L502.232 422.253L498.186 422.982L495.234 427.404L494.869 430.356H492.658L484.178 441.412L479.015 451.738L475.698 466.84L465.384 481.212L462.067 495.22L462.432 499.642L465.019 502.594L466.854 501.112L465.748 503.699L468.336 506.64L472.017 505.534L473.487 508.122L477.91 509.957L479.015 514.379H474.969L472.382 519.907L474.593 523.223L472.017 526.916L466.124 529.492L462.067 527.281V522.494L457.28 521.388L451.752 524.705L448.435 529.127L442.167 551.239L434.063 556.39L433.322 553.814L428.159 554.555L430.747 545.711L434.063 539.807L430.006 533.173L433.687 528.022L428.159 524.329L425.948 519.542L426.324 512.909L422.267 509.592L428.159 508.122L433.687 503.323L434.428 497.796L431.476 483.059L438.85 471.638L434.428 469.051L431.476 469.792L430.006 466.11L427.795 465.005L430.006 459.842L427.43 456.16L430.006 455.055L437.004 442.153L443.272 439.201L452.858 442.517L450.647 420.771L446.954 417.83L441.802 422.253L438.85 419.665L439.215 415.243L432.958 411.197L431.476 408.245L432.217 405.669L441.426 401.976L442.532 397.554L446.224 394.614L456.539 396.449L456.904 392.767L453.222 389.086L456.174 387.98L461.326 380.606L453.963 378.76L449.541 375.443L452.482 370.656L451.011 366.598L456.174 363.658L457.645 360.341L453.222 354.437L452.482 348.545L448.435 345.593ZM409 412.667V404.928L411.952 395.719L424.843 399.401L423.737 403.082L429.641 409.351L425.219 413.032L427.054 414.878L425.583 418.56L420.42 420.406L418.585 423.723L413.058 421.512L413.787 413.773L409 412.667ZM429.641 473.473L430.37 471.262H431.476L431.111 473.849L430.37 474.579L429.641 473.473ZM428.9 348.545V347.804V347.075L429.641 345.228H430.006V345.593V346.334L429.641 347.439L429.265 348.91L428.9 348.545ZM431.111 339.7L430.37 338.595V338.23L430.747 337.489L431.476 336.384V336.019L431.852 335.278L432.217 334.913V334.537L432.958 335.278V336.019L432.582 336.384L432.217 337.854V338.595L431.852 338.959V339.336L431.476 339.7V340.441H431.111V339.7Z"/>
</mask>
<path fill-rule="evenodd" clip-rule="evenodd" d="M448.435 345.593L444.743 345.969L445.119 338.595L448.059 334.172L450.647 333.432L451.376 329.75L455.798 330.856L453.222 322.752L444.743 322.376L440.32 326.798L444.013 320.906L451.752 318.33L455.069 308.745L466.124 313.532L474.593 314.272L478.286 308.745L493.387 307.263L504.078 301.37L504.819 293.631L503.337 291.42V296.948L500.397 286.998L502.608 283.681L507.03 285.152L510.712 280L513.664 281.835V293.996L516.604 295.102L519.921 306.157L525.084 313.532L534.669 318.33L537.986 311.697L541.303 316.119L540.926 320.541L535.034 322.376L532.458 331.221V340.806L524.343 345.593L510.712 366.234L505.549 376.925L503.714 391.297L506.654 397.189L507.395 395.719H512.182L508.865 401.976V407.88L504.819 408.61L500.397 416.725L502.232 422.253L498.186 422.982L495.234 427.404L494.869 430.356H492.658L484.178 441.412L479.015 451.738L475.698 466.84L465.384 481.212L462.067 495.22L462.432 499.642L465.019 502.594L466.854 501.112L465.748 503.699L468.336 506.64L472.017 505.534L473.487 508.122L477.91 509.957L479.015 514.379H474.969L472.382 519.907L474.593 523.223L472.017 526.916L466.124 529.492L462.067 527.281V522.494L457.28 521.388L451.752 524.705L448.435 529.127L442.167 551.239L434.063 556.39L433.322 553.814L428.159 554.555L430.747 545.711L434.063 539.807L430.006 533.173L433.687 528.022L428.159 524.329L425.948 519.542L426.324 512.909L422.267 509.592L428.159 508.122L433.687 503.323L434.428 497.796L431.476 483.059L438.85 471.638L434.428 469.051L431.476 469.792L430.006 466.11L427.795 465.005L430.006 459.842L427.43 456.16L430.006 455.055L437.004 442.153L443.272 439.201L452.858 442.517L450.647 420.771L446.954 417.83L441.802 422.253L438.85 419.665L439.215 415.243L432.958 411.197L431.476 408.245L432.217 405.669L441.426 401.976L442.532 397.554L446.224 394.614L456.539 396.449L456.904 392.767L453.222 389.086L456.174 387.98L461.326 380.606L453.963 378.76L449.541 375.443L452.482 370.656L451.011 366.598L456.174 363.658L457.645 360.341L453.222 354.437L452.482 348.545L448.435 345.593ZM409 412.667V404.928L411.952 395.719L424.843 399.401L423.737 403.082L429.641 409.351L425.219 413.032L427.054 414.878L425.583 418.56L420.42 420.406L418.585 423.723L413.058 421.512L413.787 413.773L409 412.667ZM429.641 473.473L430.37 471.262H431.476L431.111 473.849L430.37 474.579L429.641 473.473ZM428.9 348.545V347.804V347.075L429.641 345.228H430.006V345.593V346.334L429.641 347.439L429.265 348.91L428.9 348.545ZM431.111 339.7L430.37 338.595V338.23L430.747 337.489L431.476 336.384V336.019L431.852 335.278L432.217 334.913V334.537L432.958 335.278V336.019L432.582 336.384L432.217 337.854V338.595L431.852 338.959V339.336L431.476 339.7V340.441H431.111V339.7Z" fill="white"/>
<path fill-rule="evenodd" clip-rule="evenodd" d="M448.435 345.593L444.743 345.969L445.119 338.595L448.059 334.172L450.647 333.432L451.376 329.75L455.798 330.856L453.222 322.752L444.743 322.376L440.32 326.798L444.013 320.906L451.752 318.33L455.069 308.745L466.124 313.532L474.593 314.272L478.286 308.745L493.387 307.263L504.078 301.37L504.819 293.631L503.337 291.42V296.948L500.397 286.998L502.608 283.681L507.03 285.152L510.712 280L513.664 281.835V293.996L516.604 295.102L519.921 306.157L525.084 313.532L534.669 318.33L537.986 311.697L541.303 316.119L540.926 320.541L535.034 322.376L532.458 331.221V340.806L524.343 345.593L510.712 366.234L505.549 376.925L503.714 391.297L506.654 397.189L507.395 395.719H512.182L508.865 401.976V407.88L504.819 408.61L500.397 416.725L502.232 422.253L498.186 422.982L495.234 427.404L494.869 430.356H492.658L484.178 441.412L479.015 451.738L475.698 466.84L465.384 481.212L462.067 495.22L462.432 499.642L465.019 502.594L466.854 501.112L465.748 503.699L468.336 506.64L472.017 505.534L473.487 508.122L477.91 509.957L479.015 514.379H474.969L472.382 519.907L474.593 523.223L472.017 526.916L466.124 529.492L462.067 527.281V522.494L457.28 521.388L451.752 524.705L448.435 529.127L442.167 551.239L434.063 556.39L433.322 553.814L428.159 554.555L430.747 545.711L434.063 539.807L430.006 533.173L433.687 528.022L428.159 524.329L425.948 519.542L426.324 512.909L422.267 509.592L428.159 508.122L433.687 503.323L434.428 497.796L431.476 483.059L438.85 471.638L434.428 469.051L431.476 469.792L430.006 466.11L427.795 465.005L430.006 459.842L427.43 456.16L430.006 455.055L437.004 442.153L443.272 439.201L452.858 442.517L450.647 420.771L446.954 417.83L441.802 422.253L438.85 419.665L439.215 415.243L432.958 411.197L431.476 408.245L432.217 405.669L441.426 401.976L442.532 397.554L446.224 394.614L456.539 396.449L456.904 392.767L453.222 389.086L456.174 387.98L461.326 380.606L453.963 378.76L449.541 375.443L452.482 370.656L451.011 366.598L456.174 363.658L457.645 360.341L453.222 354.437L452.482 348.545L448.435 345.593ZM409 412.667V404.928L411.952 395.719L424.843 399.401L423.737 403.082L429.641 409.351L425.219 413.032L427.054 414.878L425.583 418.56L420.42 420.406L418.585 423.723L413.058 421.512L413.787 413.773L409 412.667ZM429.641 473.473L430.37 471.262H431.476L431.111 473.849L430.37 474.579L429.641 473.473ZM428.9 348.545V347.804V347.075L429.641 345.228H430.006V345.593V346.334L429.641 347.439L429.265 348.91L428.9 348.545ZM431.111 339.7L430.37 338.595V338.23L430.747 337.489L431.476 336.384V336.019L431.852 335.278L432.217 334.913V334.537L432.958 335.278V336.019L432.582 336.384L432.217 337.854V338.595L431.852 338.959V339.336L431.476 339.7V340.441H431.111V339.7Z" stroke="black" stroke-opacity="0.3" stroke-width="2" mask="url(#path-38-outside-1_11039_2993)"/>
<g opacity="0.4">
<mask id="mask1_11039_2993" style="mask-type:alpha" maskUnits="userSpaceOnUse" x="409" y="280" width="133" height="277">
<path fill-rule="evenodd" clip-rule="evenodd" d="M449.275 342.492L455.297 346.885L456.1 353.275L461.1 359.95L458.517 365.776L454.693 367.954L455.795 370.994L453.528 374.683L455.28 375.997L466.279 378.755L458.405 390.026L460.029 391.65L459.205 399.97L447.033 397.805L445.195 399.268L443.965 404.191L434.695 407.908L434.683 407.947L435.272 409.121L442.352 413.699L441.986 418.141L446.882 413.938L453.503 419.211L456.318 446.889L443.446 442.435L439.172 444.448L432.146 457.401L432.002 457.462L433.42 459.489L431.666 463.586L432.368 463.938L433.289 466.244L434.886 465.843L443.071 470.632L434.657 483.663L437.468 497.698L436.51 504.846L429.583 510.858L428.796 511.055L429.406 511.553L428.986 518.964L430.528 522.304L437.928 527.247L433.601 533.302L437.54 539.742L433.53 546.882L432.347 550.924L435.483 550.474L435.838 551.707L439.592 549.32L445.701 527.773L449.705 522.435L456.775 518.193L465.067 520.108V525.499L466.269 526.155L470.04 524.506L470.962 523.185L468.948 520.165L473.061 511.379H473.51L471.387 510.498L470.59 509.095L467.355 510.067L462.246 504.261L462.326 504.073L459.523 500.875L459.038 494.992L462.601 479.944L472.901 465.593L476.165 450.73L481.623 439.814L491.178 427.356H492.217L492.344 426.33L496.399 420.256L498.295 419.914L497.139 416.433L502.873 405.912L505.865 405.373V402.327L500.622 391.821L502.635 376.06L508.098 364.748L522.222 343.361L529.458 339.092V330.793L532.436 320.567L523.062 315.874L517.186 307.482L514.158 297.387L510.664 296.073V285.227L508.184 288.697L504.246 287.388L507.908 292.851L506.914 303.233L494.295 310.188L479.992 311.592L476.101 317.416L465.379 316.478L456.846 312.783L454.417 319.802L455.447 319.848L460.286 335.07L453.706 333.425L453.233 335.812L449.946 336.753L448.073 339.57L447.917 342.63L449.275 342.492ZM444.743 345.969L445.119 338.595L448.059 334.172L450.647 333.432L451.376 329.75L455.798 330.856L453.222 322.752L444.743 322.376L440.32 326.798L444.013 320.906L451.752 318.33L455.069 308.745L466.124 313.532L474.593 314.272L478.286 308.745L493.387 307.263L504.078 301.37L504.819 293.631L503.337 291.42V296.948L500.397 286.998L502.608 283.681L507.03 285.152L510.712 280L513.664 281.835V293.996L516.604 295.102L519.921 306.157L525.084 313.532L534.669 318.33L537.986 311.697L541.303 316.119L540.926 320.541L535.034 322.376L532.458 331.221V340.806L524.343 345.593L510.712 366.234L505.549 376.925L503.714 391.297L506.654 397.189L507.395 395.719H512.182L508.865 401.976V407.88L504.819 408.61L500.397 416.725L502.232 422.253L498.186 422.982L495.234 427.404L494.869 430.356H492.658L484.178 441.412L479.015 451.738L475.698 466.84L465.384 481.212L462.067 495.22L462.432 499.642L465.019 502.594L466.854 501.112L465.748 503.699L468.336 506.64L472.017 505.534L473.487 508.122L477.91 509.957L479.015 514.379H474.969L472.382 519.907L474.593 523.223L472.017 526.916L466.124 529.492L462.067 527.281V522.494L457.28 521.388L451.752 524.705L448.435 529.127L442.167 551.239L434.063 556.39L433.322 553.814L428.159 554.555L430.747 545.711L434.063 539.807L430.006 533.173L433.687 528.022L428.159 524.329L425.948 519.542L426.324 512.909L422.267 509.592L428.159 508.122L433.687 503.323L434.428 497.796L431.476 483.059L438.85 471.638L434.428 469.051L431.476 469.792L430.006 466.11L427.795 465.005L430.006 459.842L427.43 456.16L430.006 455.055L437.004 442.153L443.272 439.201L452.858 442.517L450.647 420.771L446.954 417.83L441.802 422.253L438.85 419.665L439.215 415.243L432.958 411.197L431.476 408.245L432.217 405.669L441.426 401.976L442.532 397.554L446.224 394.614L456.539 396.449L456.904 392.767L453.222 389.086L456.174 387.98L461.326 380.606L453.963 378.76L449.541 375.443L452.482 370.656L451.011 366.598L456.174 363.658L457.645 360.341L453.222 354.437L452.482 348.545L448.435 345.593L444.743 345.969ZM427.054 414.878L425.219 413.032L429.641 409.351L423.737 403.082L424.843 399.401L411.952 395.719L409 404.928V412.667L413.787 413.773L413.058 421.512L418.585 423.723L420.42 420.406L425.583 418.56L427.054 414.878ZM423.537 415.596L423.299 416.191L418.344 417.963L417.242 419.954L416.255 419.56L417.02 411.441L412 410.281V405.397L413.922 399.402L421.095 401.45L420.366 403.878L425.27 409.086L420.781 412.823L423.537 415.596ZM431.476 471.262H430.37L429.641 473.473L430.37 474.579L431.111 473.849L431.476 471.262ZM538.039 318.298L538.108 318.277L538.12 318.136L538.039 318.298ZM430.006 345.228H429.641L428.9 347.075V348.545L429.265 348.91L429.641 347.439L430.006 346.334V345.228ZM431.111 340.441H431.476V339.7L431.852 339.336V338.959L432.217 338.595V337.854L432.582 336.384L432.958 336.019V335.278L432.217 334.537V334.913L431.852 335.278L431.476 336.019V336.384L430.747 337.489L430.37 338.23V338.595L431.111 339.7V340.441Z" fill="white"/>
</mask>
<g mask="url(#mask1_11039_2993)">
<g filter="url(#filter0_f_11039_2993)">
<circle cx="455.302" cy="508.123" r="50.877" fill="#FF185D"/>
</g>
<g filter="url(#filter1_f_11039_2993)">
<circle cx="472.768" cy="432.188" r="50.877" fill="#00ADD2"/>
</g>
<g filter="url(#filter2_f_11039_2993)">
<circle cx="480.233" cy="379.032" r="50.877" fill="#68CF54"/>
</g>
<g filter="url(#filter3_f_11039_2993)">
<circle cx="506" cy="324" r="63" fill="#FF5C00"/>
</g>
</g>
</g>
</g>
<defs>
<filter id="filter0_f_11039_2993" x="324.425" y="377.246" width="261.754" height="261.754" filterUnits="userSpaceOnUse" color-interpolation-filters="sRGB">
<feFlood flood-opacity="0" result="BackgroundImageFix"/>
<feBlend mode="normal" in="SourceGraphic" in2="BackgroundImageFix" result="shape"/>
<feGaussianBlur stdDeviation="40" result="effect1_foregroundBlur_11039_2993"/>
</filter>
<filter id="filter1_f_11039_2993" x="341.891" y="301.311" width="261.754" height="261.754" filterUnits="userSpaceOnUse" color-interpolation-filters="sRGB">
<feFlood flood-opacity="0" result="BackgroundImageFix"/>
<feBlend mode="normal" in="SourceGraphic" in2="BackgroundImageFix" result="shape"/>
<feGaussianBlur stdDeviation="40" result="effect1_foregroundBlur_11039_2993"/>
</filter>
<filter id="filter2_f_11039_2993" x="349.356" y="248.155" width="261.754" height="261.754" filterUnits="userSpaceOnUse" color-interpolation-filters="sRGB">
<feFlood flood-opacity="0" result="BackgroundImageFix"/>
<feBlend mode="normal" in="SourceGraphic" in2="BackgroundImageFix" result="shape"/>
<feGaussianBlur stdDeviation="40" result="effect1_foregroundBlur_11039_2993"/>
</filter>
<filter id="filter3_f_11039_2993" x="363" y="181" width="286" height="286" filterUnits="userSpaceOnUse" color-interpolation-filters="sRGB">
<feFlood flood-opacity="0" result="BackgroundImageFix"/>
<feBlend mode="normal" in="SourceGraphic" in2="BackgroundImageFix" result="shape"/>
<feGaussianBlur stdDeviation="40" result="effect1_foregroundBlur_11039_2993"/>
</filter>
<radialGradient id="paint0_radial_11039_2993" cx="0" cy="0" r="1" gradientUnits="userSpaceOnUse" gradientTransform="translate(416.5 353) rotate(179.724) scale(415.505 515.046)">
<stop stop-color="white" stop-opacity="0.5"/>
<stop offset="1" stop-color="white"/>
</radialGradient>
</defs>
</svg>
