<svg width="107" height="41" viewBox="0 0 107 41" fill="none" xmlns="http://www.w3.org/2000/svg">
<path d="M14.921 27.2476C14.0392 27.2476 13.1852 27.1137 12.3592 26.8458C11.5443 26.5667 10.9024 26.2095 10.4336 25.7742L11.0531 24.4681C11.4996 24.87 12.0689 25.1993 12.761 25.456C13.4643 25.7016 14.1843 25.8244 14.921 25.8244C15.8922 25.8244 16.6178 25.6625 17.0978 25.3388C17.5778 25.0039 17.8178 24.563 17.8178 24.016C17.8178 23.6142 17.6838 23.2904 17.4159 23.0449C17.1592 22.7881 16.8355 22.5928 16.4448 22.4588C16.0652 22.3249 15.5238 22.1742 14.8206 22.0067C13.9387 21.7946 13.2243 21.5825 12.6773 21.3704C12.1415 21.1583 11.6782 20.8346 11.2875 20.3993C10.908 19.9528 10.7182 19.3556 10.7182 18.6076C10.7182 17.9825 10.8801 17.4188 11.2038 16.9165C11.5387 16.4142 12.041 16.0123 12.7108 15.7109C13.3806 15.4095 14.2122 15.2588 15.2057 15.2588C15.8978 15.2588 16.5787 15.3481 17.2485 15.5267C17.9182 15.7053 18.4931 15.9621 18.9731 16.2969L18.4206 17.6365C17.9294 17.3239 17.4048 17.0895 16.8466 16.9332C16.2885 16.7658 15.7415 16.6821 15.2057 16.6821C14.2568 16.6821 13.5424 16.8551 13.0624 17.2011C12.5936 17.5472 12.3592 17.9937 12.3592 18.5407C12.3592 18.9425 12.4931 19.2718 12.761 19.5286C13.0289 19.7742 13.3582 19.9695 13.7489 20.1146C14.1508 20.2486 14.6922 20.3937 15.3731 20.55C16.255 20.7621 16.9638 20.9742 17.4996 21.1863C18.0355 21.3983 18.4931 21.7221 18.8727 22.1574C19.2634 22.5928 19.4587 23.1788 19.4587 23.9156C19.4587 24.5295 19.2913 25.0932 18.9564 25.6067C18.6215 26.109 18.1136 26.5109 17.4327 26.8123C16.7517 27.1025 15.9145 27.2476 14.921 27.2476Z" fill="black"/>
<path d="M24.9021 18.1556C26.13 18.1556 27.0677 18.4569 27.7152 19.0597C28.3738 19.6625 28.7031 20.5611 28.7031 21.7556V27.1137H27.1793V25.9416C26.9114 26.3546 26.5263 26.6728 26.024 26.896C25.5328 27.1081 24.9468 27.2142 24.2659 27.2142C23.2724 27.2142 22.4742 26.9742 21.8714 26.4942C21.2798 26.0142 20.984 25.3835 20.984 24.6021C20.984 23.8207 21.2687 23.1956 21.838 22.7267C22.4073 22.2467 23.3114 22.0067 24.5505 22.0067H27.0956V21.6886C27.0956 20.9965 26.8947 20.4663 26.4928 20.0979C26.091 19.7295 25.4993 19.5453 24.718 19.5453C24.1933 19.5453 23.6798 19.6346 23.1775 19.8132C22.6752 19.9807 22.251 20.2095 21.9049 20.4997L21.2352 19.2942C21.6928 18.9258 22.2398 18.6467 22.8761 18.4569C23.5124 18.256 24.1877 18.1556 24.9021 18.1556ZM24.5338 25.9751C25.1477 25.9751 25.678 25.8411 26.1245 25.5732C26.571 25.2942 26.8947 24.9035 27.0956 24.4011V23.1621H24.6175C23.2556 23.1621 22.5747 23.6197 22.5747 24.5351C22.5747 24.9816 22.7477 25.3332 23.0938 25.59C23.4398 25.8467 23.9198 25.9751 24.5338 25.9751Z" fill="black"/>
<path d="M34.9261 15.9118C33.9662 15.9118 33.4861 16.4309 33.4861 17.469V18.2393H36.0648V19.5621H33.5196V27.1137H31.9122V19.5621H30.4052V18.2393H31.9122V17.4523C31.9122 16.5704 32.1689 15.8728 32.6824 15.3593C33.1959 14.8458 33.9159 14.589 34.8424 14.589C35.1996 14.589 35.5345 14.6337 35.8471 14.723C36.1596 14.8123 36.4275 14.9407 36.6508 15.1081L36.1652 16.3304C35.7968 16.0514 35.3838 15.9118 34.9261 15.9118Z" fill="black"/>
<path d="M45.4704 22.7267C45.4704 22.8495 45.4592 23.0114 45.4369 23.2123H38.2369C38.3374 23.9937 38.6778 24.6244 39.2583 25.1044C39.8499 25.5732 40.5811 25.8076 41.4518 25.8076C42.5123 25.8076 43.3662 25.4504 44.0137 24.736L44.9011 25.7742C44.4992 26.243 43.9969 26.6002 43.3941 26.8458C42.8025 27.0914 42.1383 27.2142 41.4016 27.2142C40.4639 27.2142 39.6323 27.0244 38.9067 26.6449C38.1811 26.2542 37.6174 25.7128 37.2155 25.0207C36.8248 24.3286 36.6295 23.5472 36.6295 22.6765C36.6295 21.8169 36.8192 21.0411 37.1988 20.349C37.5895 19.6569 38.1197 19.1211 38.7895 18.7416C39.4704 18.3509 40.2351 18.1556 41.0834 18.1556C41.9318 18.1556 42.6853 18.3509 43.3439 18.7416C44.0137 19.1211 44.5327 19.6569 44.9011 20.349C45.2806 21.0411 45.4704 21.8337 45.4704 22.7267ZM41.0834 19.5118C40.3132 19.5118 39.6658 19.7463 39.1411 20.2151C38.6276 20.6839 38.3262 21.2979 38.2369 22.0569H43.9299C43.8406 21.309 43.5337 20.7007 43.009 20.2318C42.4955 19.7518 41.8537 19.5118 41.0834 19.5118Z" fill="black"/>
<path d="M53.1946 27.3481C51.9667 27.3481 50.8616 27.0914 49.8792 26.5779C48.9081 26.0532 48.1434 25.3276 47.5853 24.4011C47.0271 23.4746 46.7481 22.4253 46.7481 21.2532C46.7481 20.0811 47.0271 19.0318 47.5853 18.1053C48.1434 17.1788 48.9081 16.4588 49.8792 15.9453C50.8616 15.4207 51.9667 15.1583 53.1946 15.1583C54.2662 15.1583 55.2318 15.3481 56.0913 15.7276C56.9509 16.1072 57.6653 16.6542 58.2346 17.3686L56.1248 19.2774C55.3657 18.3621 54.4448 17.9044 53.362 17.9044C52.7257 17.9044 52.1564 18.0439 51.6541 18.323C51.163 18.6021 50.7778 18.9983 50.4988 19.5118C50.2309 20.0142 50.0969 20.5946 50.0969 21.2532C50.0969 21.9118 50.2309 22.4979 50.4988 23.0114C50.7778 23.5137 51.163 23.9044 51.6541 24.1835C52.1564 24.4625 52.7257 24.6021 53.362 24.6021C54.4448 24.6021 55.3657 24.1444 56.1248 23.229L58.2346 25.1379C57.6653 25.8523 56.9509 26.3993 56.0913 26.7788C55.2318 27.1583 54.2662 27.3481 53.1946 27.3481Z" fill="black"/>
<path d="M59.5621 18.0383H62.7435V27.1137H59.5621V18.0383ZM61.1528 17.0337C60.5723 17.0337 60.1035 16.8718 59.7463 16.5481C59.3891 16.2244 59.2105 15.8225 59.2105 15.3425C59.2105 14.8625 59.3891 14.4607 59.7463 14.1369C60.1035 13.8132 60.5723 13.6514 61.1528 13.6514C61.7332 13.6514 62.2021 13.8076 62.5593 14.1202C62.9165 14.4216 63.0951 14.8123 63.0951 15.2923C63.0951 15.7946 62.9165 16.2132 62.5593 16.5481C62.2021 16.8718 61.7332 17.0337 61.1528 17.0337Z" fill="black"/>
<path d="M71.0733 26.7453C70.8054 26.9128 70.4761 27.0411 70.0854 27.1304C69.7059 27.2197 69.2984 27.2644 68.8631 27.2644C67.6798 27.2644 66.7701 26.9742 66.1338 26.3937C65.4975 25.8132 65.1794 24.9481 65.1794 23.7983V20.7509H63.8566V18.3732H65.1794V16.0123H68.3608V18.3732H70.437V20.7509H68.3608V23.7649C68.3608 24.0886 68.4445 24.3453 68.6119 24.5351C68.7905 24.7137 69.0249 24.803 69.3152 24.803C69.6835 24.803 70.0073 24.7081 70.2863 24.5183L71.0733 26.7453Z" fill="black"/>
<path d="M72.3001 18.0383H75.4815V27.1137H72.3001V18.0383ZM73.8908 17.0337C73.3103 17.0337 72.8415 16.8718 72.4843 16.5481C72.1271 16.2244 71.9485 15.8225 71.9485 15.3425C71.9485 14.8625 72.1271 14.4607 72.4843 14.1369C72.8415 13.8132 73.3103 13.6514 73.8908 13.6514C74.4712 13.6514 74.9401 13.8076 75.2973 14.1202C75.6545 14.4216 75.8331 14.8123 75.8331 15.2923C75.8331 15.7946 75.6545 16.2132 75.2973 16.5481C74.9401 16.8718 74.4712 17.0337 73.8908 17.0337Z" fill="black"/>
<path d="M86.8253 22.5928C86.8253 22.6151 86.8085 22.8774 86.775 23.3797H80.1778C80.3118 23.8486 80.5685 24.2114 80.9481 24.4681C81.3388 24.7137 81.8243 24.8365 82.4048 24.8365C82.8402 24.8365 83.2141 24.7751 83.5267 24.6523C83.8504 24.5295 84.1741 24.3286 84.4978 24.0495L86.1723 25.7909C85.2904 26.7732 84.0011 27.2644 82.3043 27.2644C81.2439 27.2644 80.3118 27.0635 79.5081 26.6616C78.7043 26.2597 78.0792 25.7016 77.6327 24.9872C77.1974 24.2728 76.9797 23.4635 76.9797 22.5593C76.9797 21.6663 77.1918 20.8681 77.616 20.1649C78.0513 19.4504 78.6485 18.8923 79.4076 18.4904C80.1667 18.0886 81.0206 17.8876 81.9695 17.8876C82.8736 17.8876 83.6941 18.0774 84.4309 18.4569C85.1676 18.8253 85.7481 19.3667 86.1723 20.0811C86.6076 20.7844 86.8253 21.6216 86.8253 22.5928ZM81.9862 20.1481C81.495 20.1481 81.082 20.2876 80.7471 20.5667C80.4234 20.8458 80.2169 21.2253 80.1276 21.7053H83.8448C83.7555 21.2253 83.5434 20.8458 83.2085 20.5667C82.8848 20.2876 82.4774 20.1481 81.9862 20.1481Z" fill="black"/>
<path d="M91.5907 27.2644C90.8316 27.2644 90.0837 27.1807 89.347 27.0132C88.6102 26.8346 88.0186 26.6058 87.5721 26.3267L88.5265 24.15C88.9395 24.4067 89.4307 24.6132 90 24.7695C90.5693 24.9146 91.133 24.9872 91.6912 24.9872C92.2046 24.9872 92.5674 24.9369 92.7795 24.8365C93.0028 24.7249 93.1144 24.5686 93.1144 24.3676C93.1144 24.1667 92.9805 24.0272 92.7126 23.949C92.4558 23.8597 92.0428 23.776 91.4735 23.6979C90.7479 23.6086 90.1284 23.4914 89.6149 23.3463C89.1125 23.2011 88.6772 22.9332 88.3088 22.5425C87.9405 22.1518 87.7563 21.6049 87.7563 20.9016C87.7563 20.3211 87.9293 19.8076 88.2753 19.3611C88.6214 18.9035 89.1237 18.5463 89.7823 18.2895C90.4521 18.0216 91.2502 17.8876 92.1767 17.8876C92.8354 17.8876 93.4884 17.9546 94.1358 18.0886C94.7832 18.2225 95.3246 18.4123 95.76 18.6579L94.8056 20.8179C94.0019 20.3714 93.1312 20.1481 92.1935 20.1481C91.6912 20.1481 91.3228 20.2095 91.0884 20.3323C90.854 20.4439 90.7367 20.5946 90.7367 20.7844C90.7367 20.9965 90.8651 21.1472 91.1219 21.2365C91.3786 21.3146 91.8028 21.3983 92.3944 21.4876C93.1423 21.5993 93.7619 21.7276 94.253 21.8728C94.7442 22.0179 95.1684 22.2858 95.5256 22.6765C95.894 23.056 96.0781 23.5918 96.0781 24.2839C96.0781 24.8532 95.9051 25.3667 95.5591 25.8244C95.213 26.2709 94.6995 26.6225 94.0186 26.8793C93.3488 27.136 92.5395 27.2644 91.5907 27.2644Z" fill="black"/>
<path fill-rule="evenodd" clip-rule="evenodd" d="M0 0.5H106.512V40.5H0V0.5ZM0.930232 1.43023V39.5698H105.581V1.43023H0.930232Z" fill="black"/>
</svg>
